<svg width="16" height="16" viewBox="0 0 16 16" fill="none" xmlns="http://www.w3.org/2000/svg">
<path d="M2 5.3335L5.63328 7.7557C6.48863 8.3259 6.91633 8.61103 7.37853 8.72183C7.78707 8.8197 8.21293 8.8197 8.62147 8.72183C9.08367 8.61103 9.5114 8.3259 10.3667 7.7557L14 5.3335M4.13333 12.6668H11.8667C12.6134 12.6668 12.9868 12.6668 13.272 12.5215C13.5229 12.3937 13.7269 12.1897 13.8547 11.9388C14 11.6536 14 11.2802 14 10.5335V5.46683C14 4.7201 14 4.34672 13.8547 4.06151C13.7269 3.81062 13.5229 3.60665 13.272 3.47882C12.9868 3.3335 12.6134 3.3335 11.8667 3.3335H4.13333C3.3866 3.3335 3.01323 3.3335 2.72801 3.47882C2.47713 3.60665 2.27315 3.81062 2.14533 4.06151C2 4.34672 2 4.72009 2 5.46683V10.5335C2 11.2802 2 11.6536 2.14533 11.9388C2.27315 12.1897 2.47713 12.3937 2.72801 12.5215C3.01323 12.6668 3.38659 12.6668 4.13333 12.6668Z" stroke="#9D9D9D" stroke-linecap="round" stroke-linejoin="round"/>
</svg>
