<svg width="16" height="16" viewBox="0 0 16 16" fill="none" xmlns="http://www.w3.org/2000/svg">
<path d="M7.99829 0.498047C4.96665 0.498047 2.49878 2.96592 2.49878 5.99755C2.49878 11.3319 7.68825 15.3873 7.68825 15.3873C7.77683 15.458 7.8868 15.4965 8.00013 15.4965C8.11346 15.4965 8.22343 15.458 8.31202 15.3873C8.31202 15.3873 13.5015 11.3319 13.5015 5.99755C13.5015 2.96592 11.0299 0.498047 7.99829 0.498047ZM7.99829 1.49829C10.4895 1.49829 12.5012 3.50635 12.5012 5.99755C12.5012 10.3615 8.54963 13.8093 8.00198 14.2763C7.45694 13.8117 3.49902 10.3632 3.49903 5.99755C3.49903 3.50635 5.50709 1.49829 7.99829 1.49829Z" fill="#9D9D9D"/>
<path d="M7.99828 3.49902C6.62349 3.49902 5.49952 4.62301 5.49951 5.99779C5.4995 7.3726 6.62349 8.50025 7.99828 8.50025C9.37308 8.50025 10.5008 7.3726 10.5007 5.99779C10.5007 4.62301 9.37307 3.49902 7.99828 3.49902ZM7.99828 4.49927C8.83263 4.49927 9.50049 5.16344 9.5005 5.99779C9.5005 6.83214 8.83263 7.50001 7.99828 7.50001C7.16393 7.50001 6.49975 6.83214 6.49976 5.99779C6.49976 5.16344 7.16393 4.49927 7.99828 4.49927Z" fill="#9D9D9D"/>
</svg>
