<svg width="16" height="16" viewBox="0 0 16 16" fill="none" xmlns="http://www.w3.org/2000/svg">
<path d="M2.67099 5.28856C2.62277 6.56065 2.94471 8.72097 5.11176 10.888C5.63457 11.4108 6.15698 11.8262 6.66663 12.155M3.69183 3.29132C4.62047 2.36269 6.10207 2.48746 6.69169 3.54395L7.12436 4.31924C7.51483 5.01889 7.35809 5.93672 6.74309 6.5517C6.74309 6.5517 5.99721 7.2977 7.34963 8.65017C8.70163 10.0022 9.44809 9.2567 9.44809 9.2567C10.0631 8.6417 10.9809 8.48497 11.6806 8.87544L12.4558 9.3081C13.5124 9.8977 13.6371 11.3793 12.7085 12.308C12.1505 12.866 11.4669 13.3002 10.7112 13.3288C10.1686 13.3494 9.46416 13.3026 8.66663 13.0739" stroke="#9D9D9D" stroke-linecap="round"/>
</svg>
